<?xml version="1.0"?>
<svg xmlns="http://www.w3.org/2000/svg" xmlns:xlink="http://www.w3.org/1999/xlink" xmlns:svgjs="http://svgjs.com/svgjs" version="1.1" width="512" height="512" x="0" y="0" viewBox="0 0 480 480" style="enable-background:new 0 0 512 512" xml:space="preserve"><g>
<g xmlns="http://www.w3.org/2000/svg">
	<g>
		<path d="M424,16H56C25.087,16.035,0.035,41.087,0,72v256c0.035,30.913,25.087,55.965,56,56h125.248l-19.2,64H136v16h208v-16    h-26.048l-19.2-64H424c30.913-0.035,55.965-25.087,56-56V72C479.965,41.087,454.913,16.035,424,16z M301.248,448H178.752l19.2-64    h84.096L301.248,448z M464,328c-0.026,22.08-17.92,39.974-40,40H56c-22.08-0.026-39.974-17.92-40-40v-8h448V328z M464,304H16V72    c0.026-22.08,17.92-39.974,40-40h368c22.08,0.026,39.974,17.92,40,40V304z" fill="#ffffff" data-original="#000000" style=""/>
	</g>
</g>
<g xmlns="http://www.w3.org/2000/svg">
	<g>
		<path d="M336,128h-20l-21.6-28.8c-1.511-2.014-3.882-3.2-6.4-3.2h-80c-2.518,0-4.889,1.186-6.4,3.2l-22.168,29.6l-37.032,7.36    c-3.725,0.76-6.401,4.038-6.4,7.84v40c0,4.418,3.582,8,8,8h25.472c4.335,12.442,17.935,19.014,30.376,14.68    c6.877-2.396,12.284-7.802,14.68-14.68h50.944c4.335,12.442,17.935,19.014,30.376,14.68c6.877-2.396,12.284-7.802,14.68-14.68H336    c4.418,0,8-3.582,8-8v-48C344,131.582,340.418,128,336,128z M192,192c-4.418,0-8-3.582-8-8s3.582-8,8-8s8,3.582,8,8    S196.418,192,192,192z M288,192c-4.418,0-8-3.582-8-8s3.582-8,8-8s8,3.582,8,8S292.418,192,288,192z M328,176h-17.368    c-0.096-0.272-0.24-0.512-0.344-0.8c-0.176-0.448-0.384-0.872-0.584-1.304c-0.414-0.886-0.882-1.746-1.4-2.576    c-0.24-0.392-0.472-0.8-0.744-1.16c-0.671-0.945-1.409-1.84-2.208-2.68c-0.168-0.176-0.312-0.376-0.48-0.544    c-0.989-0.977-2.06-1.869-3.2-2.664c-0.344-0.192-0.696-0.376-1.024-0.584c-0.87-0.547-1.773-1.038-2.704-1.472    c-0.44-0.2-0.888-0.376-1.344-0.552c-0.939-0.363-1.901-0.663-2.88-0.896c-0.44-0.112-0.864-0.24-1.312-0.32    c-2.903-0.595-5.897-0.595-8.8,0c-0.448,0.08-0.872,0.208-1.312,0.32c-0.979,0.233-1.941,0.533-2.88,0.896    c-0.456,0.176-0.896,0.352-1.336,0.552c-0.935,0.432-1.841,0.923-2.712,1.472c-0.328,0.208-0.68,0.392-1,0.608    c-1.14,0.795-2.211,1.687-3.2,2.664c-0.168,0.168-0.312,0.368-0.48,0.544c-0.799,0.84-1.537,1.735-2.208,2.68    c-0.264,0.376-0.504,0.8-0.744,1.16c-0.518,0.83-0.986,1.69-1.4,2.576c-0.208,0.432-0.408,0.856-0.584,1.304    c-0.104,0.264-0.248,0.504-0.344,0.8h-50.776c-0.096-0.272-0.24-0.512-0.344-0.8c-0.176-0.448-0.384-0.872-0.584-1.304    c-0.414-0.886-0.882-1.746-1.4-2.576c-0.24-0.392-0.472-0.8-0.744-1.16c-0.671-0.945-1.409-1.84-2.208-2.68    c-0.168-0.176-0.312-0.376-0.48-0.544c-0.989-0.977-2.06-1.869-3.2-2.664c-0.32-0.216-0.672-0.4-1-0.608    c-0.87-0.547-1.773-1.038-2.704-1.472c-0.44-0.2-0.888-0.376-1.344-0.552c-0.939-0.363-1.901-0.663-2.88-0.896    c-0.44-0.112-0.864-0.24-1.312-0.32c-2.903-0.595-5.897-0.595-8.8,0c-0.448,0.08-0.872,0.208-1.312,0.32    c-0.979,0.233-1.941,0.533-2.88,0.896c-0.456,0.176-0.896,0.352-1.336,0.552c-0.935,0.432-1.841,0.923-2.712,1.472    c-0.328,0.208-0.68,0.392-1,0.608c-1.14,0.795-2.211,1.687-3.2,2.664c-0.168,0.168-0.312,0.368-0.48,0.544    c-0.799,0.84-1.537,1.735-2.208,2.68c-0.264,0.376-0.504,0.8-0.744,1.16c-0.518,0.83-0.986,1.69-1.4,2.576    c-0.208,0.432-0.408,0.856-0.584,1.304c-0.104,0.264-0.248,0.504-0.344,0.8H152v-25.472l33.6-6.712    c1.92-0.386,3.63-1.469,4.8-3.04L212,112h72l21.6,28.8c1.511,2.014,3.882,3.2,6.4,3.2h16V176z" fill="#ffffff" data-original="#000000" style=""/>
	</g>
</g>
<g xmlns="http://www.w3.org/2000/svg">
	<g>
		<path d="M149.656,82.344c-1.5-1.5-3.534-2.344-5.656-2.344h-32v16h28.688l21.656,21.656l11.312-11.312L149.656,82.344z" fill="#ffffff" data-original="#000000" style=""/>
	</g>
</g>
<g xmlns="http://www.w3.org/2000/svg">
	<g>
		<rect x="384" y="64" width="64" height="16" fill="#ffffff" data-original="#000000" style=""/>
	</g>
</g>
<g xmlns="http://www.w3.org/2000/svg">
	<g>
		<rect x="384" y="96" width="64" height="16" fill="#ffffff" data-original="#000000" style=""/>
	</g>
</g>
<g xmlns="http://www.w3.org/2000/svg">
	<g>
		<rect x="384" y="144" width="64" height="16" fill="#ffffff" data-original="#000000" style=""/>
	</g>
</g>
<g xmlns="http://www.w3.org/2000/svg">
	<g>
		<rect x="384" y="176" width="64" height="16" fill="#ffffff" data-original="#000000" style=""/>
	</g>
</g>
<g xmlns="http://www.w3.org/2000/svg">
	<g>
		<path d="M336,80c-2.122,0-4.156,0.844-5.656,2.344l-16,16l11.312,11.312L339.312,96H368V80H336z" fill="#ffffff" data-original="#000000" style=""/>
	</g>
</g>
<g xmlns="http://www.w3.org/2000/svg">
	<g>
		<rect x="32" y="64" width="64" height="16" fill="#ffffff" data-original="#000000" style=""/>
	</g>
</g>
<g xmlns="http://www.w3.org/2000/svg">
	<g>
		<rect x="32" y="96" width="64" height="16" fill="#ffffff" data-original="#000000" style=""/>
	</g>
</g>
<g xmlns="http://www.w3.org/2000/svg">
	<g>
		<rect x="32" y="144" width="64" height="16" fill="#ffffff" data-original="#000000" style=""/>
	</g>
</g>
<g xmlns="http://www.w3.org/2000/svg">
	<g>
		<rect x="32" y="176" width="64" height="16" fill="#ffffff" data-original="#000000" style=""/>
	</g>
</g>
<g xmlns="http://www.w3.org/2000/svg">
	<g>
		<path d="M80,232H48c-4.418,0-8,3.582-8,8v32c0,4.418,3.582,8,8,8h32c4.418,0,8-3.582,8-8v-32C88,235.582,84.418,232,80,232z     M72,264H56v-16h16V264z" fill="#ffffff" data-original="#000000" style=""/>
	</g>
</g>
<g xmlns="http://www.w3.org/2000/svg">
	<g>
		<path d="M176,224h-48c-4.418,0-8,3.582-8,8v48c0,4.418,3.582,8,8,8h48c4.418,0,8-3.582,8-8v-48C184,227.582,180.418,224,176,224z     M168,272h-32v-32h32V272z" fill="#ffffff" data-original="#000000" style=""/>
	</g>
</g>
<g xmlns="http://www.w3.org/2000/svg">
	<g>
		<path d="M256,232h-32c-4.418,0-8,3.582-8,8v32c0,4.418,3.582,8,8,8h32c4.418,0,8-3.582,8-8v-32C264,235.582,260.418,232,256,232z     M248,264h-16v-16h16V264z" fill="#ffffff" data-original="#000000" style=""/>
	</g>
</g>
<g xmlns="http://www.w3.org/2000/svg">
	<g>
		<path d="M344,232h-32c-4.418,0-8,3.582-8,8v32c0,4.418,3.582,8,8,8h32c4.418,0,8-3.582,8-8v-32C352,235.582,348.418,232,344,232z     M336,264h-16v-16h16V264z" fill="#ffffff" data-original="#000000" style=""/>
	</g>
</g>
<g xmlns="http://www.w3.org/2000/svg">
	<g>
		<path d="M432,232h-32c-4.418,0-8,3.582-8,8v32c0,4.418,3.582,8,8,8h32c4.418,0,8-3.582,8-8v-32C440,235.582,436.418,232,432,232z     M424,264h-16v-16h16V264z" fill="#ffffff" data-original="#000000" style=""/>
	</g>
</g>
<g xmlns="http://www.w3.org/2000/svg">
	<g>
		<rect x="184" y="64" width="112" height="16" fill="#ffffff" data-original="#000000" style=""/>
	</g>
</g>
<g xmlns="http://www.w3.org/2000/svg">
</g>
<g xmlns="http://www.w3.org/2000/svg">
</g>
<g xmlns="http://www.w3.org/2000/svg">
</g>
<g xmlns="http://www.w3.org/2000/svg">
</g>
<g xmlns="http://www.w3.org/2000/svg">
</g>
<g xmlns="http://www.w3.org/2000/svg">
</g>
<g xmlns="http://www.w3.org/2000/svg">
</g>
<g xmlns="http://www.w3.org/2000/svg">
</g>
<g xmlns="http://www.w3.org/2000/svg">
</g>
<g xmlns="http://www.w3.org/2000/svg">
</g>
<g xmlns="http://www.w3.org/2000/svg">
</g>
<g xmlns="http://www.w3.org/2000/svg">
</g>
<g xmlns="http://www.w3.org/2000/svg">
</g>
<g xmlns="http://www.w3.org/2000/svg">
</g>
<g xmlns="http://www.w3.org/2000/svg">
</g>
</g></svg>
