<?xml version="1.0"?>
<svg xmlns="http://www.w3.org/2000/svg" xmlns:xlink="http://www.w3.org/1999/xlink" xmlns:svgjs="http://svgjs.com/svgjs" version="1.1" width="512" height="512" x="0" y="0" viewBox="0 0 64 64" style="enable-background:new 0 0 512 512" xml:space="preserve" class=""><g><path xmlns="http://www.w3.org/2000/svg" d="M57.955,38.278c.021-.425.045-.849.045-1.278A26.026,26.026,0,0,0,32.763,11.019C31.5,5.344,24.921,1,17,1,8.178,1,1,6.383,1,13c0,4.642,3.54,8.669,8.7,10.664a25.988,25.988,0,0,0,36.215,35.3c.362.018.722.041,1.09.041,8.822,0,16-5.383,16-12C63,43.563,61.053,40.467,57.955,38.278ZM56,37.084A19.82,19.82,0,0,0,47,35a20.957,20.957,0,0,0-3.028.222c-.057-1.881-.2-3.7-.432-5.445a30.159,30.159,0,0,0,9.76-3.816A23.844,23.844,0,0,1,56,37C56,37.028,56,37.056,56,37.084ZM32,61c-4.134,0-7.776-6.4-9.274-15.2a52.614,52.614,0,0,1,8.515-.788A9.063,9.063,0,0,0,31,47c0,3.984,2.612,7.51,6.609,9.694C35.93,59.47,33.963,61,32,61Zm-.065-18a54.653,54.653,0,0,0-9.5.829,54.466,54.466,0,0,1,0-13.661A54.633,54.633,0,0,0,32,31a54.634,54.634,0,0,0,9.562-.829,52.433,52.433,0,0,1,.418,5.449c-.395.1-.79.2-1.177.322l-3.153-2.7A1,1,0,0,0,36,34v4.29A12.261,12.261,0,0,0,31.935,43ZM17,25a20.772,20.772,0,0,0,4.438-.482q-.394,1.592-.684,3.285a27.947,27.947,0,0,1-8.839-3.435A20.763,20.763,0,0,0,17,25Zm6.549-.641,2.8,2.4A1,1,0,0,0,28,26V21.71a10.868,10.868,0,0,0,4.991-8.584c3.684.937,6.887,7.01,8.275,15.076A52.918,52.918,0,0,1,32,29a52.923,52.923,0,0,1-9.285-.8C22.94,26.869,23.223,25.589,23.549,24.359ZM52.3,24.227A27.517,27.517,0,0,1,43.242,27.8c-1.075-6.269-3.223-11.34-5.973-14.214A24.064,24.064,0,0,1,52.3,24.227ZM3,13C3,7.486,9.28,3,17,3S31,7.486,31,13c0,2.768-1.658,5.446-4.55,7.347a1,1,0,0,0-.45.836v2.643l-1.931-1.655a1,1,0,0,0-.65-.24,1.01,1.01,0,0,0-.329.055A18.469,18.469,0,0,1,17,23C9.28,23,3,18.514,3,13Zm7.7,12.962a30.143,30.143,0,0,0,9.759,3.815A56.141,56.141,0,0,0,20,37a56.756,56.756,0,0,0,.455,7.224A30.122,30.122,0,0,0,10.7,48.039a23.9,23.9,0,0,1,0-22.077Zm.994,23.81A27.552,27.552,0,0,1,20.747,46.2c1.064,6.27,3.194,11.33,5.939,14.2A24.067,24.067,0,0,1,11.7,49.772ZM37.327,60.4a15.693,15.693,0,0,0,2.085-2.839,19.239,19.239,0,0,0,3.18.965A23.783,23.783,0,0,1,37.327,60.4ZM47,57c-7.72,0-14-4.486-14-10,0-2.769,1.658-5.446,4.55-7.347a1,1,0,0,0,.45-.836V36.174l1.931,1.654a1,1,0,0,0,.979.186A18.456,18.456,0,0,1,47,37c7.72,0,14,4.486,14,10S54.72,57,47,57Z" fill="#ffffff" data-original="#000000" style="" class=""/><path xmlns="http://www.w3.org/2000/svg" d="M19.405,19.558l2.065,1.29,1.06-1.7-2.064-1.29a11.657,11.657,0,0,1-2.146-1.739A13.527,13.527,0,0,0,20.937,9H23V7H18V5H16V7H11V9h7.937A11.528,11.528,0,0,1,17,14.506a11.624,11.624,0,0,1-1.665-3.743l-1.943.474a13.59,13.59,0,0,0,2.3,4.885,11.776,11.776,0,0,1-2.152,1.74l-2.064,1.29,1.06,1.7,2.065-1.29A13.736,13.736,0,0,0,17,17.629,13.743,13.743,0,0,0,19.405,19.558Z" fill="#ffffff" data-original="#000000" style="" class=""/><path xmlns="http://www.w3.org/2000/svg" d="M50.315,43.808a3.361,3.361,0,0,0-6.63,0l-.671,4.027A1,1,0,0,0,43,48v5h2V49h4v4h2V48a1,1,0,0,0-.014-.164ZM47,43a1.359,1.359,0,0,1,1.343,1.137L48.82,47H45.18l.477-2.862A1.359,1.359,0,0,1,47,43Z" fill="#ffffff" data-original="#000000" style="" class=""/></g></svg>
